# xmcd CD database file
#
# Track frame offsets:
#	150
#	23345
#	41709
#	63306
#	82671
#	100013
#	122512
#	139739
#	157494
#	176946
#	192343
#	215335
#
# Disc length: 3199 seconds
#
# Revision: 8
# Processed by: cddbd v1.5.1PL0 Copyright (c) Steve Scherf et al.
# Submitted via: CDex 1.50beta8
#
DISCID=9e0c7d0c
DTITLE=スキマスイッチ - 夏雲ノイズ
DYEAR=2004
DGENRE=Japanese Pop
TTITLE0=螺旋(らせん）
TTITLE1=ふれて未来を
TTITLE2=桜夜風
TTITLE3=View
TTITLE4=きみがいいなら
TTITLE5=ドーシタトースター
TTITLE6=君の話 〜エヴォリューションMix〜
TTITLE7=僕の話
TTITLE8=種を蒔く人
TTITLE9=キミドリ色の世界
TTITLE10=えんぴつケシゴム 〜Overture〜
TTITLE11=奏 (かなで）
EXTD=YEAR: 2004
EXTT0=
EXTT1=
EXTT2=
EXTT3=
EXTT4=
EXTT5=
EXTT6=
EXTT7=
EXTT8=
EXTT9=
EXTT10=
EXTT11=
PLAYORDER=
